<?xml version="1.0" encoding="UTF-8"?>
<svg xmlns="http://www.w3.org/2000/svg"
    xmlns:latexdraw="http://latexdraw.sourceforge.net/namespaces/latexdraw"
    version="1.1" baseProfile="full">
    <defs>
        <pattern latexdraw:type="vlines" latexdraw:rotationAngle="0.0"
            latexdraw:size="7.055555555555555"
            patternUnits="userSpaceOnUse" id="pattern11976" x="0" y="0"
            width="1401" height="401">
            <rect fill="white" stroke="none" width="1401" height="401"/>
            <g stroke="black" stroke-width="2.0" stroke-dasharray="none">
                <path d="M 1229.0 349.0 L 1229.0 401.0 M 1238.0555555555557 349.0 L 1238.0555555555557 401.0 M 1247.1111111111113 349.0 L 1247.1111111111113 401.0 M 1256.166666666667 349.0 L 1256.166666666667 401.0 M 1265.2222222222226 349.0 L 1265.2222222222226 401.0 M 1274.2777777777783 349.0 L 1274.2777777777783 401.0 M 1283.333333333334 349.0 L 1283.333333333334 401.0 M 1292.3888888888896 349.0 L 1292.3888888888896 401.0 M 1301.4444444444453 349.0 L 1301.4444444444453 401.0 M 1310.500000000001 349.0 L 1310.500000000001 401.0 M 1319.5555555555566 349.0 L 1319.5555555555566 401.0 M 1328.6111111111122 349.0 L 1328.6111111111122 401.0 M 1337.6666666666679 349.0 L 1337.6666666666679 401.0 M 1346.7222222222235 349.0 L 1346.7222222222235 401.0 M 1355.7777777777792 349.0 L 1355.7777777777792 401.0 M 1364.8333333333348 349.0 L 1364.8333333333348 401.0 M 1373.8888888888905 349.0 L 1373.8888888888905 401.0 M 1382.9444444444462 349.0 L 1382.9444444444462 401.0 M 1392.0000000000018 349.0 L 1392.0000000000018 401.0 "/>
            </g>
        </pattern>
        <pattern latexdraw:type="vlines" latexdraw:rotationAngle="0.0"
            latexdraw:size="7.055555555555555"
            patternUnits="userSpaceOnUse" id="pattern11977" x="0" y="0"
            width="700" height="340">
            <g stroke="black" stroke-width="2.0" stroke-dasharray="none">
                <path d="M 620.0 290.0 L 620.0 340.0 M 629.0555555555555 290.0 L 629.0555555555555 340.0 M 638.1111111111111 290.0 L 638.1111111111111 340.0 M 647.1666666666666 290.0 L 647.1666666666666 340.0 M 656.2222222222222 290.0 L 656.2222222222222 340.0 M 665.2777777777777 290.0 L 665.2777777777777 340.0 M 674.3333333333333 290.0 L 674.3333333333333 340.0 M 683.3888888888888 290.0 L 683.3888888888888 340.0 M 692.4444444444443 290.0 L 692.4444444444443 340.0 "/>
            </g>
        </pattern>
        <pattern latexdraw:type="vlines" latexdraw:rotationAngle="0.0"
            latexdraw:size="7.055555555555555"
            patternUnits="userSpaceOnUse" id="pattern11978" x="0" y="0"
            width="910" height="400">
            <g stroke="black" stroke-width="2.0" stroke-dasharray="none">
                <path d="M 770.0 350.0 L 770.0 400.0 M 779.0555555555555 350.0 L 779.0555555555555 400.0 M 788.1111111111111 350.0 L 788.1111111111111 400.0 M 797.1666666666666 350.0 L 797.1666666666666 400.0 M 806.2222222222222 350.0 L 806.2222222222222 400.0 M 815.2777777777777 350.0 L 815.2777777777777 400.0 M 824.3333333333333 350.0 L 824.3333333333333 400.0 M 833.3888888888888 350.0 L 833.3888888888888 400.0 M 842.4444444444443 350.0 L 842.4444444444443 400.0 M 851.4999999999999 350.0 L 851.4999999999999 400.0 M 860.5555555555554 350.0 L 860.5555555555554 400.0 M 869.611111111111 350.0 L 869.611111111111 400.0 M 878.6666666666665 350.0 L 878.6666666666665 400.0 M 887.7222222222221 350.0 L 887.7222222222221 400.0 M 896.7777777777776 350.0 L 896.7777777777776 400.0 M 905.8333333333331 350.0 L 905.8333333333331 400.0 "/>
            </g>
        </pattern>
        <pattern latexdraw:type="vlines" latexdraw:rotationAngle="0.0"
            latexdraw:size="7.055555555555555"
            patternUnits="userSpaceOnUse" id="pattern11979" x="0" y="0"
            width="1150" height="340">
            <g stroke="black" stroke-width="2.0" stroke-dasharray="none">
                <path d="M 1070.0 290.0 L 1070.0 340.0 M 1079.0555555555557 290.0 L 1079.0555555555557 340.0 M 1088.1111111111113 290.0 L 1088.1111111111113 340.0 M 1097.166666666667 290.0 L 1097.166666666667 340.0 M 1106.2222222222226 290.0 L 1106.2222222222226 340.0 M 1115.2777777777783 290.0 L 1115.2777777777783 340.0 M 1124.333333333334 290.0 L 1124.333333333334 340.0 M 1133.3888888888896 290.0 L 1133.3888888888896 340.0 M 1142.4444444444453 290.0 L 1142.4444444444453 340.0 "/>
            </g>
        </pattern>
    </defs>
    <g>
        <g latexdraw:type="joinedLines" id="id11965">
            <polyline
                points="350.0,280.0 530.0,280.0 530.0,230.0 930.0,230.0 930.0,280.0 1120.0,280.0 1430.0,280.0 "
                stroke-width="2.0" stroke="black" fill="none" latexdraw:rotationAngle="0.0"/>
        </g>
        <g latexdraw:type="joinedLines" id="id11968">
            <polyline points="350.0,340.0 680.0,340.0 700.0,340.0 "
                stroke-width="2.0" stroke="black" fill="none" latexdraw:rotationAngle="0.0"/>
        </g>
        <g latexdraw:type="line" id="id11971">
            <line x1="620.0" x2="1150.0" y1="290.0" y2="290.0"
                stroke-width="2.0" stroke="black" latexdraw:rotationAngle="0.0"/>
        </g>
        <g latexdraw:type="line" id="id11972">
            <line x1="350.0" x2="910.0" y1="400.0" y2="400.0"
                stroke-width="2.0" stroke="black" latexdraw:rotationAngle="0.0"/>
        </g>
        <g latexdraw:type="line" id="id11973">
            <line x1="770.0" x2="1400.0" y1="350.0" y2="350.0"
                stroke-width="2.0" stroke="black" latexdraw:rotationAngle="0.0"/>
        </g>
        <g latexdraw:type="line" id="id11974">
            <line x1="1230.0" x2="1430.0" y1="400.0" y2="400.0"
                stroke-width="2.0" stroke="black" latexdraw:rotationAngle="0.0"/>
        </g>
        <g latexdraw:type="line" id="id11975">
            <line x1="1070.0" x2="1430.0" y1="340.0" y2="340.0"
                stroke-width="2.0" stroke="black" latexdraw:rotationAngle="0.0"/>
        </g>
        <g latexdraw:type="rectangle" id="id11976">
            <rect x="1230.0" y="350.0" width="170.0" height="50.0"
                latexdraw:borderPos="middle" stroke-width="2.0"
                stroke="black" fill="url(#pattern11976)"/>
        </g>
        <g latexdraw:type="rectangle" id="id11977">
            <rect x="621.0" y="291.0" width="78.0" height="48.0"
                latexdraw:borderPos="outer" stroke-width="2.0"
                stroke="black" fill="url(#pattern11977)"/>
        </g>
        <g latexdraw:type="rectangle" id="id11978">
            <rect x="771.0" y="351.0" width="138.0" height="48.0"
                latexdraw:borderPos="outer" stroke-width="2.0"
                stroke="black" fill="url(#pattern11978)"/>
        </g>
        <g latexdraw:type="rectangle" id="id11979">
            <rect x="1071.0" y="291.0" width="78.0" height="48.0"
                latexdraw:borderPos="outer" stroke-width="2.0"
                stroke="black" fill="url(#pattern11979)"/>
        </g>
        <g latexdraw:type="line" id="id11980">
            <line x1="530.0" x2="530.0" y1="280.0" y2="440.0"
                stroke-width="1.0" stroke="black"
                stroke-dasharray="8.0, 8.0" latexdraw:rotationAngle="0.0"/>
        </g>
        <g latexdraw:type="line" id="id11981">
            <line x1="620.0" x2="620.0" y1="340.0" y2="430.0"
                stroke-width="1.0" stroke="black"
                stroke-dasharray="8.0, 8.0" latexdraw:rotationAngle="0.0"/>
        </g>
        <g latexdraw:type="line" id="id11982">
            <line x1="700.0" x2="700.0" y1="340.0" y2="430.0"
                stroke-width="1.0" stroke="black"
                stroke-dasharray="8.0, 8.0" latexdraw:rotationAngle="0.0"/>
        </g>
        <g latexdraw:type="line" id="id11983">
            <line x1="770.0" x2="770.0" y1="390.0" y2="430.0"
                stroke-width="1.0" stroke="black"
                stroke-dasharray="8.0, 8.0" latexdraw:rotationAngle="0.0"/>
        </g>
        <g latexdraw:type="line" id="id11984">
            <line x1="910.0" x2="910.0" y1="400.0" y2="430.0"
                stroke-width="1.0" stroke="black"
                stroke-dasharray="8.0, 8.0" latexdraw:rotationAngle="0.0"/>
        </g>
        <g latexdraw:type="text" id="id11985" font-family="Dialog"
            fill="black" font-size="24" latexdraw:x="510.0">
            <text x="510.0" y="460.0"><![CDATA[t0]]></text>
        </g>
        <g latexdraw:type="text" id="id11988" font-family="Dialog"
            fill="black" font-size="24" latexdraw:x="600.0">
            <text x="600.0" y="460.0"><![CDATA[t1]]></text>
        </g>
        <g latexdraw:type="text" id="id11991" font-family="Dialog"
            fill="black" font-size="24" latexdraw:x="680.0">
            <text x="680.0" y="460.0"><![CDATA[t2]]></text>
        </g>
        <g latexdraw:type="text" id="id11994" font-family="Dialog"
            fill="black" font-size="24" latexdraw:x="750.0">
            <text x="750.0" y="460.0"><![CDATA[t3]]></text>
        </g>
        <g latexdraw:type="text" id="id11997" font-family="Dialog"
            fill="black" font-size="24" latexdraw:x="890.0">
            <text x="890.0" y="460.0"><![CDATA[t4]]></text>
        </g>
        <g latexdraw:type="text" id="id12000" font-family="Dialog"
            fill="black" font-size="24" latexdraw:x="330.0">
            <text x="330.0" y="270.0"><![CDATA[a]]></text>
        </g>
        <g latexdraw:type="text" id="id12003" font-family="Dialog"
            fill="black" font-size="24" latexdraw:x="330.0">
            <text x="330.0" y="330.0"><![CDATA[b]]></text>
        </g>
        <g latexdraw:type="text" id="id12006" font-family="Dialog"
            fill="black" font-size="24" latexdraw:x="330.0">
            <text x="330.0" y="390.0"><![CDATA[c]]></text>
        </g>
    </g>
    <metadata>
        <latexdraw:metadata>
            <latexdraw:displayBorders>false</latexdraw:displayBorders>
            <latexdraw:autoAdjust>true</latexdraw:autoAdjust>
            <latexdraw:ppc>50</latexdraw:ppc>
            <latexdraw:zoom>0.75</latexdraw:zoom>
            <latexdraw:unit>cm</latexdraw:unit>
            <latexdraw:classicGrid>false</latexdraw:classicGrid>
            <latexdraw:gridGap>10</latexdraw:gridGap>
            <latexdraw:code>0</latexdraw:code>
            <latexdraw:displayGrid>true</latexdraw:displayGrid>
            <latexdraw:magneticGrid>true</latexdraw:magneticGrid>
            <latexdraw:autoUpdate>true</latexdraw:autoUpdate>
            <latexdraw:version>2.0.8</latexdraw:version>
            <latexdraw:size>
                <latexdraw:width>1061</latexdraw:width>
                <latexdraw:height>567</latexdraw:height>
            </latexdraw:size>
            <latexdraw:position>
                <latexdraw:x>721</latexdraw:x>
                <latexdraw:y>187</latexdraw:y>
            </latexdraw:position>
            <latexdraw:dividerPosition>0.5457115928369463</latexdraw:dividerPosition>
            <latexdraw:displayCodePanel>true</latexdraw:displayCodePanel>
            <latexdraw:displayXScale>true</latexdraw:displayXScale>
            <latexdraw:displayYScale>true</latexdraw:displayYScale>
            <latexdraw:delimitorOpacity>130</latexdraw:delimitorOpacity>
        </latexdraw:metadata>
    </metadata>
</svg>
